<svg xmlns="http://www.w3.org/2000/svg" xmlns:xlink="http://www.w3.org/1999/xlink" viewBox="0 0 999.01 105.31"><defs><style>.cls-1{fill:#12191f;}.cls-2{fill:url(#linear-gradient);}.cls-3{fill:url(#linear-gradient-2);}.cls-4{fill:#93a2ad;}</style><linearGradient id="linear-gradient" y1="52.65" x2="105.31" y2="52.65" gradientUnits="userSpaceOnUse"><stop offset="0" stop-color="#d694f9"/><stop offset="0.48" stop-color="#d893f8"/><stop offset="0.69" stop-color="#e08ff4"/><stop offset="0.86" stop-color="#ec88ee"/><stop offset="1" stop-color="#fe7de5"/><stop offset="1" stop-color="#ff7de5"/></linearGradient><linearGradient id="linear-gradient-2" x1="-195.17" y1="53.23" x2="-247.64" y2="52.55" gradientTransform="matrix(1, 0, -0.08, 1, 285.82, 0)" gradientUnits="userSpaceOnUse"><stop offset="0.49" stop-color="#d694f9"/><stop offset="0.89" stop-color="#f583ea"/><stop offset="1" stop-color="#ff7de5"/></linearGradient></defs><title>HCL_Digital_Experience_light</title><g id="Layer_2" data-name="Layer 2"><g id="Layer_2-2" data-name="Layer 2"><rect class="cls-1" x="4" y="4" width="97.31" height="97.31"/><path class="cls-2" d="M101.31,4v97.31H4V4h97.31m0-4H4A4,4,0,0,0,0,4v97.31a4,4,0,0,0,4,4h97.31a4,4,0,0,0,4-4V4a4,4,0,0,0-4-4Z"/><polygon class="cls-3" points="50.27 24.88 32.89 24.88 45.43 52.45 8.07 80.08 25.24 80.08 62.7 52.45 50.27 24.88"/><polygon class="cls-4" points="72.94 44.55 99.66 24.88 64.17 24.88 72.94 44.55"/><polygon class="cls-4" points="67.19 62.39 43.05 80.09 75.13 80.09 67.19 62.39"/><path class="cls-1" d="M150.53,24.67h9.79V47.83H186.9V24.67h9.79V80.38H186.9V56.9H160.32V80.38h-9.79Z"/><path class="cls-1" d="M205.49,52.68v-.16c0-15.84,11.86-28.81,28.65-28.81,10.35,0,16.56,3.58,21.89,8.68l-6.29,7.24c-4.53-4.14-9.23-6.85-15.68-6.85-10.5,0-18.3,8.68-18.3,19.58v.16c0,10.91,7.72,19.74,18.38,19.74,6.85,0,11.23-2.71,16-7.16l6.29,6.37c-5.81,6-12.18,9.86-22.61,9.86C217.51,81.33,205.49,68.68,205.49,52.68Z"/><path class="cls-1" d="M263.11,24.67h9.79v46.8h29.29v8.91H263.11Z"/><path class="cls-1" d="M332.35,24.67h20.77c17.51,0,29.61,12,29.61,27.69v.16c0,15.68-12.1,27.86-29.61,27.86H332.35Zm9.79,8.91V71.47h11c11.7,0,19.34-7.88,19.34-18.79v-.16c0-10.9-7.64-18.94-19.34-18.94Z"/><path class="cls-1" d="M390.43,22.76h10.35v9.15H390.43Zm.32,15.6h9.71v42h-9.71Z"/><path class="cls-1" d="M409,88.26,412.53,81a27.52,27.52,0,0,0,15,4.37c8.6,0,13.3-4.37,13.3-12.81V69.4C437.28,73.85,432.91,77,426,77c-10,0-19.1-7.33-19.1-19.66v-.16c0-12.42,9.31-19.74,19.1-19.74,7.09,0,11.46,3.26,14.73,7.16V38.36h9.63V71.78c0,7.09-1.83,12.34-5.34,15.84-3.82,3.82-9.71,5.65-17.27,5.65A36.23,36.23,0,0,1,409,88.26Zm31.92-31v-.16c0-6.85-5.65-11.46-12.34-11.46s-11.94,4.53-11.94,11.46v.16c0,6.84,5.33,11.54,11.94,11.54S440.87,64.14,440.87,57.3Z"/><path class="cls-1" d="M459.08,22.76h10.34v9.15H459.08Zm.32,15.6h9.71v42H459.4Z"/><path class="cls-1" d="M479.76,68.76V46.63h-5.34V38.36h5.34V26.82h9.63V38.36h11.3v8.27h-11.3V67.25c0,3.74,1.91,5.25,5.17,5.25a13,13,0,0,0,6-1.43V79a16.71,16.71,0,0,1-8.68,2.15C484.77,81.1,479.76,78,479.76,68.76Z"/><path class="cls-1" d="M504.29,68.28v-.16c0-9.07,7.16-13.53,17.43-13.53A35.28,35.28,0,0,1,533,56.34v-1c0-6-3.66-9.15-10.43-9.15a29.31,29.31,0,0,0-12,2.62L508,41.22a36.44,36.44,0,0,1,15.91-3.42c6.29,0,11,1.67,13.93,4.69,3.11,3,4.54,7.49,4.54,13V80.38h-9.39V75.13a17.08,17.08,0,0,1-13.69,6.12C511.37,81.25,504.29,76.72,504.29,68.28Zm28.89-3V62.39a26.82,26.82,0,0,0-9.55-1.67c-6.21,0-9.87,2.63-9.87,7v.16c0,4.06,3.58,6.37,8.19,6.37C528.32,74.25,533.18,70.59,533.18,65.26Z"/><path class="cls-1" d="M551,22.28h9.71v58.1H551Z"/><path class="cls-1" d="M594.5,24.67h41.31v8.75H604.29V47.91h27.94v8.83H604.29V71.62h31.92v8.76H594.5Z"/><path class="cls-1" d="M661.1,52.44l9.79-14.08h10.26l-14.8,20.53,15.44,21.49H671.28l-10.34-15-10.27,15H640.4L655.76,59,641,38.36h10.51Z"/><path class="cls-1" d="M686.21,38.36h9.71v7c3.1-4.38,7.48-7.88,14.32-7.88,9.87,0,19.5,7.8,19.5,21.81v.16c0,13.93-9.55,21.8-19.5,21.8-7,0-11.38-3.5-14.32-7.4V93.11h-9.71ZM720,59.45v-.16c0-8.12-5.57-13.45-12-13.45s-12.25,5.41-12.25,13.45v.16c0,8,5.73,13.45,12.25,13.45S720,67.72,720,59.45Z"/><path class="cls-1" d="M734.1,59.53v-.16c0-12,8.51-21.89,20.53-21.89,13.37,0,20.14,10.51,20.14,22.6,0,.88-.08,1.75-.16,2.71H743.73c1,6.84,5.89,10.66,12.09,10.66,4.7,0,8-1.75,11.39-5l5.65,5a21.24,21.24,0,0,1-17.19,7.88C743.49,81.33,734.1,72.5,734.1,59.53Zm31.12-3.11c-.64-6.21-4.3-11.06-10.67-11.06-5.89,0-10,4.54-10.9,11.06Z"/><path class="cls-1" d="M781.23,38.36h9.71v9.47c2.63-6.29,7.48-10.59,14.88-10.27V47.75h-.55c-8.44,0-14.33,5.49-14.33,16.63v16h-9.71Z"/><path class="cls-1" d="M810.09,22.76h10.35v9.15H810.09Zm.32,15.6h9.71v42h-9.71Z"/><path class="cls-1" d="M826.64,59.53v-.16c0-12,8.51-21.89,20.53-21.89,13.37,0,20.14,10.51,20.14,22.6,0,.88-.08,1.75-.16,2.71H836.27c1,6.84,5.89,10.66,12.1,10.66,4.69,0,8-1.75,11.38-5l5.65,5a21.24,21.24,0,0,1-17.19,7.88C836,81.33,826.64,72.5,826.64,59.53Zm31.12-3.11c-.64-6.21-4.3-11.06-10.67-11.06-5.89,0-10,4.54-10.9,11.06Z"/><path class="cls-1" d="M873.77,38.36h9.71V44.8c2.71-3.9,6.61-7.32,13.13-7.32,9.47,0,15,6.37,15,16.08V80.38H902V56.5c0-6.52-3.27-10.26-9-10.26-5.57,0-9.47,3.9-9.47,10.42V80.38h-9.71Z"/><path class="cls-1" d="M917.58,59.61v-.16a21.69,21.69,0,0,1,21.89-22c7.88,0,12.81,3,16.79,7.24l-6,6.45c-2.94-3-6.05-5.25-10.82-5.25-7,0-12.18,6-12.18,13.37v.16c0,7.48,5.17,13.45,12.57,13.45,4.54,0,7.8-2.07,10.91-5.18l5.81,5.73c-4.14,4.62-9,7.88-17.19,7.88A21.45,21.45,0,0,1,917.58,59.61Z"/><path class="cls-1" d="M958.34,59.53v-.16c0-12,8.51-21.89,20.53-21.89C992.24,37.48,999,48,999,60.08c0,.88-.08,1.75-.16,2.71H968c1,6.84,5.89,10.66,12.1,10.66,4.69,0,8-1.75,11.38-5l5.65,5a21.24,21.24,0,0,1-17.19,7.88C967.73,81.33,958.34,72.5,958.34,59.53Zm31.12-3.11c-.64-6.21-4.3-11.06-10.67-11.06-5.89,0-10,4.54-10.9,11.06Z"/></g></g></svg>